<?xml version="1.0" encoding="UTF-8" standalone="no"?>
<svg
   xmlns:dc="http://purl.org/dc/elements/1.1/"
   xmlns:cc="http://creativecommons.org/ns#"
   xmlns:rdf="http://www.w3.org/1999/02/22-rdf-syntax-ns#"
   xmlns:svg="http://www.w3.org/2000/svg"
   xmlns="http://www.w3.org/2000/svg"
   xmlns:sodipodi="http://sodipodi.sourceforge.net/DTD/sodipodi-0.dtd"
   xmlns:inkscape="http://www.inkscape.org/namespaces/inkscape"
   version="1.1"
   id="svg2"
   xml:space="preserve"
   width="312"
   height="314.66666"
   viewBox="0 0 312 314.66666"
   sodipodi:docname="logo.ai"><metadata
     id="metadata8"><rdf:RDF><cc:Work
         rdf:about=""><dc:format>image/svg+xml</dc:format><dc:type
           rdf:resource="http://purl.org/dc/dcmitype/StillImage" /></cc:Work></rdf:RDF></metadata><defs
     id="defs6"><clipPath
       clipPathUnits="userSpaceOnUse"
       id="clipPath18"><path
         d="M 0,236 H 234 V 0 H 0 Z"
         id="path16" /></clipPath></defs><sodipodi:namedview
     pagecolor="#ffffff"
     bordercolor="#666666"
     borderopacity="1"
     objecttolerance="10"
     gridtolerance="10"
     guidetolerance="10"
     inkscape:pageopacity="0"
     inkscape:pageshadow="2"
     inkscape:window-width="640"
     inkscape:window-height="480"
     id="namedview4" /><g
     id="g10"
     inkscape:groupmode="layer"
     inkscape:label="logo"
     transform="matrix(1.3333333,0,0,-1.3333333,0,314.66667)"><g
       id="g12"><g
         id="g14"
         clip-path="url(#clipPath18)"><g
           id="g20"
           transform="translate(200.377,36.6895)"><path
             d="m 0,0 c -1.15,1.93 -2.3,3.871 -3.576,5.68 -0.68,0.965 -1.767,0.445 -2.656,0.446 -24.902,0.021 -49.803,0.004 -74.704,0 -27.508,-0.005 -55.018,-0.02 -82.526,0.034 -1.719,0.003 -2.964,-0.271 -4.053,-2.167 -2.522,-4.392 -2.568,-4.264 -0.017,-8.664 0.977,-1.686 2.032,-2.299 3.79,-2.294 26.273,0.085 52.547,0.059 78.819,0.057 26.584,-10e-4 53.168,-0.003 79.752,0.011 0.584,0 1.241,-0.286 1.707,0.49 1.083,1.803 2.204,3.57 3.277,5.381 C -0.025,-0.755 0.117,-0.196 0,0"
             style="fill:#5c9bd4;fill-opacity:1;fill-rule:nonzero;stroke:none"
             id="path22" /></g><path
           d="m 24.919,54.938 h 12.528 v 5.69 H 24.919 Z m -1.715,-2.984 c 0.1,0.82 0.15,1.541 0.15,2.312 v 5.941 c 0,0.72 -0.05,1.341 -0.125,1.988 0.547,-0.074 1.069,-0.1 1.963,-0.1 h 12.006 c 0.896,0 1.393,0.026 1.964,0.1 -0.099,-0.647 -0.124,-1.168 -0.124,-1.988 v -5.941 c 0,-0.846 0.05,-1.566 0.15,-2.312 H 37.447 V 53.47 H 24.944 v -1.516 z m 6.587,21.625 c -0.124,-0.174 -0.124,-0.174 -0.373,-0.547 -0.596,-0.895 -2.635,-3.629 -3.703,-4.97 -0.523,-0.647 -0.621,-0.771 -1.765,-2.039 4.747,0.148 8.948,0.422 13.721,0.919 -0.97,1.219 -2.237,2.537 -3.754,3.878 l 1.393,0.845 c 2.709,-2.635 4.375,-4.548 6.611,-7.506 l -1.417,-1.07 c -0.994,1.492 -1.342,1.965 -1.815,2.561 -2.908,-0.298 -2.908,-0.298 -5.12,-0.447 -3.728,-0.249 -3.728,-0.249 -5.99,-0.373 -1.517,-0.075 -1.517,-0.075 -3.852,-0.224 -1.318,-0.075 -1.443,-0.1 -2.138,-0.199 l -0.373,1.64 c 0.721,0.1 1.018,0.249 1.839,0.971 2.287,2.684 4.375,5.791 4.897,7.257 z"
           style="fill:#282726;fill-opacity:1;fill-rule:nonzero;stroke:none"
           id="path24" /><path
           d="m 24.919,54.938 h 12.528 v 5.69 H 24.919 Z m -1.715,-2.984 c 0.1,0.82 0.15,1.541 0.15,2.312 v 5.941 c 0,0.72 -0.05,1.341 -0.125,1.988 0.547,-0.074 1.069,-0.1 1.963,-0.1 h 12.006 c 0.896,0 1.393,0.026 1.964,0.1 -0.099,-0.647 -0.124,-1.168 -0.124,-1.988 v -5.941 c 0,-0.846 0.05,-1.566 0.15,-2.312 H 37.447 V 53.47 H 24.944 v -1.516 z m 6.587,21.625 c -0.124,-0.174 -0.124,-0.174 -0.373,-0.547 -0.596,-0.895 -2.635,-3.629 -3.703,-4.97 -0.523,-0.647 -0.621,-0.771 -1.765,-2.039 4.747,0.148 8.948,0.422 13.721,0.919 -0.97,1.219 -2.237,2.537 -3.754,3.878 l 1.393,0.845 c 2.709,-2.635 4.375,-4.548 6.611,-7.506 l -1.417,-1.07 c -0.994,1.492 -1.342,1.965 -1.815,2.561 -2.908,-0.298 -2.908,-0.298 -5.12,-0.447 -3.728,-0.249 -3.728,-0.249 -5.99,-0.373 -1.517,-0.075 -1.517,-0.075 -3.852,-0.224 -1.318,-0.075 -1.443,-0.1 -2.138,-0.199 l -0.373,1.64 c 0.721,0.1 1.018,0.249 1.839,0.971 2.287,2.684 4.375,5.791 4.897,7.257 z"
           style="fill:none;stroke:#2a2827;stroke-width:0.5;stroke-linecap:butt;stroke-linejoin:miter;stroke-miterlimit:10;stroke-dasharray:none;stroke-opacity:1"
           id="path26" /><g
           id="g28"
           transform="translate(66.4541,62.5684)"><path
             d="m 0,0 c -0.348,1.268 -0.695,2.111 -1.268,3.182 l 0.896,0.497 C 0.224,2.585 0.522,1.914 0.995,0.597 Z m -2.51,-0.373 c -0.175,1.367 -0.373,2.186 -0.77,3.354 l 0.968,0.325 C -1.913,2.138 -1.715,1.44 -1.466,0.073 Z M -2.212,11.16 C -3.007,9.967 -3.23,9.619 -4.051,8.525 c 0.895,0.075 1.242,0.1 1.765,0.174 0.174,0.299 0.497,0.821 0.944,1.615 L -0.198,9.769 C -0.521,9.296 -0.521,9.296 -1.192,8.276 -1.913,7.184 -1.913,7.184 -3.405,5.318 c 0.696,0.1 1.467,0.248 2.361,0.399 -0.174,0.323 -0.273,0.471 -0.571,0.845 l 0.994,0.572 C 0.522,5.22 0.522,5.22 0.896,4.3 L -0.124,3.803 C -0.298,4.274 -0.348,4.424 -0.547,4.797 -1.218,4.646 -1.218,4.646 -3.032,4.374 -3.827,4.226 -4.474,4.101 -5.146,3.901 l -0.347,1.145 c 0.672,0.147 1.218,0.721 2.461,2.535 C -3.206,7.556 -3.355,7.53 -3.455,7.53 -3.777,7.48 -3.777,7.48 -4.573,7.407 -4.747,7.382 -4.946,7.332 -5.344,7.232 L -5.593,8.4 c 0.249,0.101 0.447,0.275 0.746,0.721 0.373,0.473 1.094,1.74 1.492,2.486 z M -3.827,3.057 c -0.249,-1.665 -0.448,-2.386 -0.994,-3.679 -0.373,0.299 -0.597,0.423 -1.07,0.597 0.547,0.968 0.597,1.169 0.995,3.331 z M -9.445,1.044 h 2.237 v 1.864 h -2.237 z m 3.257,3.629 c -0.449,0.05 -0.846,0.074 -1.417,0.074 h -1.467 c -0.572,0 -0.97,-0.024 -1.417,-0.074 v 1.094 c 0.423,-0.05 0.845,-0.077 1.441,-0.077 h 1.417 c 0.597,0 1.02,0.027 1.443,0.077 z m 0.024,1.889 c -0.523,0.048 -0.87,0.075 -1.417,0.075 h -1.491 c -0.547,0 -0.895,-0.027 -1.417,-0.075 v 1.092 c 0.397,-0.05 0.82,-0.073 1.441,-0.073 h 1.443 c 0.621,0 1.043,0.023 1.441,0.073 z m -4.35,-3.977 c 0,0.57 -0.025,0.943 -0.075,1.316 0.423,-0.048 0.896,-0.074 1.541,-0.074 h 1.443 c 0.646,0 1.118,0.026 1.541,0.074 C -6.114,3.528 -6.14,3.23 -6.14,2.585 V 1.342 c 0,-0.648 0.026,-0.946 0.076,-1.319 -0.448,0.05 -0.945,0.076 -1.541,0.076 h -1.443 c -0.621,0 -0.994,-0.026 -1.541,-0.076 0.05,0.349 0.075,0.748 0.075,1.319 z m 3.232,6.935 c 0.72,0 1.142,0.024 1.541,0.099 V 8.4 c -0.399,0.076 -0.87,0.101 -1.591,0.101 h -2.213 c -0.695,0 -1.168,-0.025 -1.565,-0.101 v 1.219 c 0.347,-0.075 0.82,-0.099 1.565,-0.099 h 0.896 c -0.573,0.968 -0.622,1.068 -1.293,1.914 l 0.969,0.545 c 0.821,-0.968 1.019,-1.266 1.516,-2.062 L -8.103,9.52 Z M -11.881,0 c -0.397,1.316 -0.696,2.111 -1.267,3.182 l 0.894,0.497 c 0.597,-1.094 0.895,-1.79 1.367,-3.058 z m -2.411,-0.447 c -0.174,1.342 -0.348,2.162 -0.746,3.33 l 0.945,0.347 c 0.422,-1.167 0.621,-1.888 0.869,-3.23 z m 12.229,-5.446 c 0.969,0 1.566,0.027 2.014,0.077 -0.05,-0.274 -0.05,-0.349 -0.075,-0.622 -0.472,-3.753 -0.721,-4.101 -2.958,-4.101 -1.019,0 -2.088,0.074 -2.958,0.174 -0.1,0.645 -0.174,0.919 -0.422,1.417 1.168,-0.225 2.138,-0.323 3.057,-0.323 0.845,0 1.119,0.074 1.293,0.372 0.174,0.297 0.323,0.92 0.397,1.838 l -12.876,0.026 h -0.098 c -0.697,0 -0.697,0 -0.946,-0.026 -0.298,-0.048 -0.347,-0.048 -0.645,-0.073 0.422,1.094 0.919,2.907 1.068,3.903 0.423,-0.077 1.02,-0.1 2.163,-0.1 h 10.414 v 1.268 h -10.613 c -1.02,0 -1.641,-0.025 -2.411,-0.125 v 1.392 c 0.571,-0.1 1.168,-0.124 2.411,-0.124 h 9.818 c 1.069,0 1.765,0.024 2.336,0.073 -0.049,-0.47 -0.074,-0.744 -0.074,-1.241 v -1.169 c 0,-0.521 0.025,-0.82 0.074,-1.267 -0.595,0.048 -1.242,0.075 -2.311,0.075 h -10.514 c -0.125,-0.524 -0.174,-0.746 -0.398,-1.444 z M -16.902,4.821 c 0.622,0.075 1.193,0.647 2.66,2.81 -0.199,-0.027 -0.349,-0.05 -0.447,-0.05 -0.349,-0.051 -0.349,-0.051 -1.144,-0.149 -0.174,0 -0.373,-0.05 -0.771,-0.15 l -0.249,1.169 c 0.224,0.025 0.398,0.149 0.597,0.447 0.621,0.945 1.193,1.889 1.641,2.758 l 1.143,-0.446 c -0.796,-1.193 -1.019,-1.541 -1.84,-2.636 0.92,0.051 1.244,0.101 1.791,0.174 0.173,0.273 0.273,0.424 0.793,1.343 l 1.121,-0.547 c -0.324,-0.472 -0.324,-0.472 -0.996,-1.517 -0.719,-1.067 -0.719,-1.067 -2.211,-2.931 1.143,0.174 1.814,0.298 2.163,0.397 -0.299,0.522 -0.373,0.62 -0.671,1.019 l 0.968,0.572 c 0.174,-0.273 0.299,-0.522 0.398,-0.647 0.696,-1.143 0.771,-1.317 1.143,-2.187 L -11.831,3.753 C -12.005,4.176 -12.055,4.35 -12.154,4.549 -12.9,4.398 -12.9,4.398 -14.765,4.076 -15.262,4.002 -16.032,3.827 -16.554,3.652 Z m 1.342,-1.813 c -0.223,-1.641 -0.422,-2.387 -0.994,-3.68 -0.348,0.299 -0.572,0.423 -1.069,0.622 0.547,0.945 0.597,1.144 0.994,3.306 z m -4.797,8.525 c 1.442,-1.119 2.361,-1.939 3.331,-3.032 l -0.995,-1.145 c -1.019,1.292 -1.938,2.164 -3.305,3.108 z m 3.007,-14.169 c -0.844,-2.783 -1.466,-4.324 -2.659,-6.712 -0.149,-0.248 -0.149,-0.272 -0.273,-0.52 -0.1,-0.224 -0.125,-0.299 -0.274,-0.547 l -1.417,1.242 c 0.348,0.299 0.597,0.672 1.044,1.491 1.019,1.94 1.641,3.579 2.287,5.992 z m -3.828,8.078 c 1.393,-0.943 2.312,-1.713 3.381,-2.807 l -0.92,-1.219 c -1.143,1.343 -2.012,2.089 -3.331,2.909 z"
             style="fill:#282726;fill-opacity:1;fill-rule:nonzero;stroke:none"
             id="path30" /></g><g
           id="g32"
           transform="translate(66.4541,62.5684)"><path
             d="m 0,0 c -0.348,1.268 -0.695,2.111 -1.268,3.182 l 0.896,0.497 C 0.224,2.585 0.522,1.914 0.995,0.597 Z m -2.51,-0.373 c -0.175,1.367 -0.373,2.186 -0.77,3.354 l 0.968,0.325 C -1.913,2.138 -1.715,1.44 -1.466,0.073 Z M -2.212,11.16 C -3.007,9.967 -3.23,9.619 -4.051,8.525 c 0.895,0.075 1.242,0.1 1.765,0.174 0.174,0.299 0.497,0.821 0.944,1.615 L -0.198,9.769 C -0.521,9.296 -0.521,9.296 -1.192,8.276 -1.913,7.184 -1.913,7.184 -3.405,5.318 c 0.696,0.1 1.467,0.248 2.361,0.399 -0.174,0.323 -0.273,0.471 -0.571,0.845 l 0.994,0.572 C 0.522,5.22 0.522,5.22 0.896,4.3 L -0.124,3.803 C -0.298,4.274 -0.348,4.424 -0.547,4.797 -1.218,4.646 -1.218,4.646 -3.032,4.374 -3.827,4.226 -4.474,4.101 -5.146,3.901 l -0.347,1.145 c 0.672,0.147 1.218,0.721 2.461,2.535 C -3.206,7.556 -3.355,7.53 -3.455,7.53 -3.777,7.48 -3.777,7.48 -4.573,7.407 -4.747,7.382 -4.946,7.332 -5.344,7.232 L -5.593,8.4 c 0.249,0.101 0.447,0.275 0.746,0.721 0.373,0.473 1.094,1.74 1.492,2.486 z M -3.827,3.057 c -0.249,-1.665 -0.448,-2.386 -0.994,-3.679 -0.373,0.299 -0.597,0.423 -1.07,0.597 0.547,0.968 0.597,1.169 0.995,3.331 z M -9.445,1.044 h 2.237 v 1.864 h -2.237 z m 3.257,3.629 c -0.449,0.05 -0.846,0.074 -1.417,0.074 h -1.467 c -0.572,0 -0.97,-0.024 -1.417,-0.074 v 1.094 c 0.423,-0.05 0.845,-0.077 1.441,-0.077 h 1.417 c 0.597,0 1.02,0.027 1.443,0.077 z m 0.024,1.889 c -0.523,0.048 -0.87,0.075 -1.417,0.075 h -1.491 c -0.547,0 -0.895,-0.027 -1.417,-0.075 v 1.092 c 0.397,-0.05 0.82,-0.073 1.441,-0.073 h 1.443 c 0.621,0 1.043,0.023 1.441,0.073 z m -4.35,-3.977 c 0,0.57 -0.025,0.943 -0.075,1.316 0.423,-0.048 0.896,-0.074 1.541,-0.074 h 1.443 c 0.646,0 1.118,0.026 1.541,0.074 C -6.114,3.528 -6.14,3.23 -6.14,2.585 V 1.342 c 0,-0.648 0.026,-0.946 0.076,-1.319 -0.448,0.05 -0.945,0.076 -1.541,0.076 h -1.443 c -0.621,0 -0.994,-0.026 -1.541,-0.076 0.05,0.349 0.075,0.748 0.075,1.319 z m 3.232,6.935 c 0.72,0 1.142,0.024 1.541,0.099 V 8.4 c -0.399,0.076 -0.87,0.101 -1.591,0.101 h -2.213 c -0.695,0 -1.168,-0.025 -1.565,-0.101 v 1.219 c 0.347,-0.075 0.82,-0.099 1.565,-0.099 h 0.896 c -0.573,0.968 -0.622,1.068 -1.293,1.914 l 0.969,0.545 c 0.821,-0.968 1.019,-1.266 1.516,-2.062 L -8.103,9.52 Z M -11.881,0 c -0.397,1.316 -0.696,2.111 -1.267,3.182 l 0.894,0.497 c 0.597,-1.094 0.895,-1.79 1.367,-3.058 z m -2.411,-0.447 c -0.174,1.342 -0.348,2.162 -0.746,3.33 l 0.945,0.347 c 0.422,-1.167 0.621,-1.888 0.869,-3.23 z m 12.229,-5.446 c 0.969,0 1.566,0.027 2.014,0.077 -0.05,-0.274 -0.05,-0.349 -0.075,-0.622 -0.472,-3.753 -0.721,-4.101 -2.958,-4.101 -1.019,0 -2.088,0.074 -2.958,0.174 -0.1,0.645 -0.174,0.919 -0.422,1.417 1.168,-0.225 2.138,-0.323 3.057,-0.323 0.845,0 1.119,0.074 1.293,0.372 0.174,0.297 0.323,0.92 0.397,1.838 l -12.876,0.026 h -0.098 c -0.697,0 -0.697,0 -0.946,-0.026 -0.298,-0.048 -0.347,-0.048 -0.645,-0.073 0.422,1.094 0.919,2.907 1.068,3.903 0.423,-0.077 1.02,-0.1 2.163,-0.1 h 10.414 v 1.268 h -10.613 c -1.02,0 -1.641,-0.025 -2.411,-0.125 v 1.392 c 0.571,-0.1 1.168,-0.124 2.411,-0.124 h 9.818 c 1.069,0 1.765,0.024 2.336,0.073 -0.049,-0.47 -0.074,-0.744 -0.074,-1.241 v -1.169 c 0,-0.521 0.025,-0.82 0.074,-1.267 -0.595,0.048 -1.242,0.075 -2.311,0.075 h -10.514 c -0.125,-0.524 -0.174,-0.746 -0.398,-1.444 z M -16.902,4.821 c 0.622,0.075 1.193,0.647 2.66,2.81 -0.199,-0.027 -0.349,-0.05 -0.447,-0.05 -0.349,-0.051 -0.349,-0.051 -1.144,-0.149 -0.174,0 -0.373,-0.05 -0.771,-0.15 l -0.249,1.169 c 0.224,0.025 0.398,0.149 0.597,0.447 0.621,0.945 1.193,1.889 1.641,2.758 l 1.143,-0.446 c -0.796,-1.193 -1.019,-1.541 -1.84,-2.636 0.92,0.051 1.244,0.101 1.791,0.174 0.173,0.273 0.273,0.424 0.793,1.343 l 1.121,-0.547 c -0.324,-0.472 -0.324,-0.472 -0.996,-1.517 -0.719,-1.067 -0.719,-1.067 -2.211,-2.931 1.143,0.174 1.814,0.298 2.163,0.397 -0.299,0.522 -0.373,0.62 -0.671,1.019 l 0.968,0.572 c 0.174,-0.273 0.299,-0.522 0.398,-0.647 0.696,-1.143 0.771,-1.317 1.143,-2.187 L -11.831,3.753 C -12.005,4.176 -12.055,4.35 -12.154,4.549 -12.9,4.398 -12.9,4.398 -14.765,4.076 -15.262,4.002 -16.032,3.827 -16.554,3.652 Z m 1.342,-1.813 c -0.223,-1.641 -0.422,-2.387 -0.994,-3.68 -0.348,0.299 -0.572,0.423 -1.069,0.622 0.547,0.945 0.597,1.144 0.994,3.306 z m -4.797,8.525 c 1.442,-1.119 2.361,-1.939 3.331,-3.032 l -0.995,-1.145 c -1.019,1.292 -1.938,2.164 -3.305,3.108 z m 3.007,-14.169 c -0.844,-2.783 -1.466,-4.324 -2.659,-6.712 -0.149,-0.248 -0.149,-0.272 -0.273,-0.52 -0.1,-0.224 -0.125,-0.299 -0.274,-0.547 l -1.417,1.242 c 0.348,0.299 0.597,0.672 1.044,1.491 1.019,1.94 1.641,3.579 2.287,5.992 z m -3.828,8.078 c 1.393,-0.943 2.312,-1.713 3.381,-2.807 l -0.92,-1.219 c -1.143,1.343 -2.012,2.089 -3.331,2.909 z"
             style="fill:none;stroke:#2a2827;stroke-width:0.5;stroke-linecap:butt;stroke-linejoin:miter;stroke-miterlimit:10;stroke-dasharray:none;stroke-opacity:1"
             id="path34" /></g><path
           d="m 74.631,54.938 h 12.528 v 5.69 H 74.631 Z m -1.715,-2.984 c 0.1,0.82 0.149,1.541 0.149,2.312 v 5.941 c 0,0.72 -0.049,1.341 -0.124,1.988 0.547,-0.074 1.069,-0.1 1.963,-0.1 H 86.91 c 0.896,0 1.393,0.026 1.964,0.1 -0.1,-0.647 -0.124,-1.168 -0.124,-1.988 v -5.941 c 0,-0.846 0.05,-1.566 0.148,-2.312 H 87.159 V 53.47 H 74.656 v -1.516 z m 6.587,21.625 c -0.124,-0.174 -0.124,-0.174 -0.373,-0.547 -0.596,-0.895 -2.635,-3.629 -3.703,-4.97 -0.523,-0.647 -0.621,-0.771 -1.765,-2.039 4.747,0.148 8.948,0.422 13.721,0.919 -0.97,1.219 -2.237,2.537 -3.754,3.878 l 1.392,0.845 c 2.709,-2.635 4.375,-4.548 6.612,-7.506 l -1.417,-1.07 c -0.994,1.492 -1.342,1.965 -1.815,2.561 -2.908,-0.298 -2.908,-0.298 -5.12,-0.447 -3.728,-0.249 -3.728,-0.249 -5.99,-0.373 -1.517,-0.075 -1.517,-0.075 -3.853,-0.224 -1.317,-0.075 -1.442,-0.1 -2.137,-0.199 l -0.373,1.64 c 0.72,0.1 1.018,0.249 1.839,0.971 2.287,2.684 4.375,5.791 4.897,7.257 z"
           style="fill:#282726;fill-opacity:1;fill-rule:nonzero;stroke:none"
           id="path36" /><path
           d="m 74.631,54.938 h 12.528 v 5.69 H 74.631 Z m -1.715,-2.984 c 0.1,0.82 0.149,1.541 0.149,2.312 v 5.941 c 0,0.72 -0.049,1.341 -0.124,1.988 0.547,-0.074 1.069,-0.1 1.963,-0.1 H 86.91 c 0.896,0 1.393,0.026 1.964,0.1 -0.1,-0.647 -0.124,-1.168 -0.124,-1.988 v -5.941 c 0,-0.846 0.05,-1.566 0.148,-2.312 H 87.159 V 53.47 H 74.656 v -1.516 z m 6.587,21.625 c -0.124,-0.174 -0.124,-0.174 -0.373,-0.547 -0.596,-0.895 -2.635,-3.629 -3.703,-4.97 -0.523,-0.647 -0.621,-0.771 -1.765,-2.039 4.747,0.148 8.948,0.422 13.721,0.919 -0.97,1.219 -2.237,2.537 -3.754,3.878 l 1.392,0.845 c 2.709,-2.635 4.375,-4.548 6.612,-7.506 l -1.417,-1.07 c -0.994,1.492 -1.342,1.965 -1.815,2.561 -2.908,-0.298 -2.908,-0.298 -5.12,-0.447 -3.728,-0.249 -3.728,-0.249 -5.99,-0.373 -1.517,-0.075 -1.517,-0.075 -3.853,-0.224 -1.317,-0.075 -1.442,-0.1 -2.137,-0.199 l -0.373,1.64 c 0.72,0.1 1.018,0.249 1.839,0.971 2.287,2.684 4.375,5.791 4.897,7.257 z"
           style="fill:none;stroke:#2a2827;stroke-width:0.5;stroke-linecap:butt;stroke-linejoin:miter;stroke-miterlimit:10;stroke-dasharray:none;stroke-opacity:1"
           id="path38" /><g
           id="g40"
           transform="translate(105.6025,59.0137)"><path
             d="M 0,0 C 0.92,-0.971 2.014,-1.864 3.405,-2.71 4.647,-1.938 5.667,-1.095 6.687,0 Z m -0.771,4.076 h 8.552 v 1.89 h -8.552 z m 0,3.108 H 7.781 V 9.048 H -0.771 Z M 9.021,0.446 C 8.774,0.198 8.699,0.124 8.377,-0.249 7.233,-1.541 6.288,-2.388 4.797,-3.455 7.108,-4.549 9.122,-5.12 11.855,-5.47 11.533,-5.893 11.285,-6.437 11.086,-7.011 8.028,-6.437 5.443,-5.52 3.43,-4.302 1.019,-5.667 -1.566,-6.537 -4.922,-7.061 c -0.224,0.598 -0.373,0.897 -0.722,1.394 3.082,0.348 4.973,0.895 7.732,2.235 -1.268,0.847 -2.113,1.568 -3.207,2.786 -1.044,-0.92 -1.864,-1.493 -3.405,-2.386 -0.298,0.47 -0.497,0.695 -1.019,1.168 2.608,1.243 4.573,2.834 5.841,4.698 h -0.447 c -1.094,0 -1.665,-0.025 -2.212,-0.101 0.074,0.523 0.099,1.219 0.099,2.313 v 3.058 c 0,0.82 -0.025,1.441 -0.051,1.864 -0.421,-0.597 -0.695,-0.92 -1.416,-1.74 -0.347,0.421 -0.522,0.595 -1.193,1.018 1.591,1.591 2.411,2.76 3.405,4.922 0.274,0.621 0.398,0.92 0.473,1.417 l 1.641,-0.522 c -0.1,-0.174 -0.399,-0.772 -0.896,-1.791 h 8.377 c 1.591,0 2.437,0.05 3.008,0.15 v -1.665 c -0.671,0.098 -1.616,0.148 -2.958,0.148 h -9.172 c -0.35,-0.595 -0.671,-1.117 -0.97,-1.541 0.497,-0.05 1.168,-0.074 1.989,-0.074 h 7.059 c 1.144,0 1.765,0.024 2.337,0.1 C 9.321,9.893 9.296,9.444 9.296,8.054 V 5.096 C 9.296,3.753 9.321,3.23 9.371,2.733 8.725,2.809 8.178,2.834 7.134,2.834 H 1.914 C 1.564,2.336 1.019,1.591 0.696,1.218 H 6.14 c 1.018,0 1.541,0.025 1.914,0.124 z M -4.623,14.615 c -0.199,-0.223 -0.299,-0.347 -0.696,-0.869 -1.541,-2.063 -2.834,-3.308 -4.847,-4.748 -0.273,0.497 -0.547,0.819 -1.045,1.243 1.864,1.117 3.257,2.436 4.549,4.249 0.299,0.399 0.448,0.672 0.597,1.07 z M -6.812,-3.929 c 0,-1.191 0.051,-2.161 0.15,-3.055 h -1.839 c 0.1,0.745 0.148,1.739 0.148,2.982 v 5.318 c 0,1.044 0.026,1.79 0.076,2.884 -0.746,-1.094 -1.244,-1.665 -2.387,-2.636 -0.298,0.648 -0.472,0.971 -0.896,1.394 2.015,1.614 3.307,3.132 4.623,5.442 0.375,0.648 0.574,1.044 0.698,1.417 L -4.798,8.973 C -5.021,8.625 -5.046,8.575 -5.295,8.178 -5.767,7.333 -6.214,6.637 -6.812,5.841 Z"
             style="fill:#282726;fill-opacity:1;fill-rule:nonzero;stroke:none"
             id="path42" /></g><g
           id="g44"
           transform="translate(105.6025,59.0137)"><path
             d="M 0,0 C 0.92,-0.971 2.014,-1.864 3.405,-2.71 4.647,-1.938 5.667,-1.095 6.687,0 Z m -0.771,4.076 h 8.552 v 1.89 h -8.552 z m 0,3.108 H 7.781 V 9.048 H -0.771 Z M 9.021,0.446 C 8.774,0.198 8.699,0.124 8.377,-0.249 7.233,-1.541 6.288,-2.388 4.797,-3.455 7.108,-4.549 9.122,-5.12 11.855,-5.47 11.533,-5.893 11.285,-6.437 11.086,-7.011 8.028,-6.437 5.443,-5.52 3.43,-4.302 1.019,-5.667 -1.566,-6.537 -4.922,-7.061 c -0.224,0.598 -0.373,0.897 -0.722,1.394 3.082,0.348 4.973,0.895 7.732,2.235 -1.268,0.847 -2.113,1.568 -3.207,2.786 -1.044,-0.92 -1.864,-1.493 -3.405,-2.386 -0.298,0.47 -0.497,0.695 -1.019,1.168 2.608,1.243 4.573,2.834 5.841,4.698 h -0.447 c -1.094,0 -1.665,-0.025 -2.212,-0.101 0.074,0.523 0.099,1.219 0.099,2.313 v 3.058 c 0,0.82 -0.025,1.441 -0.051,1.864 -0.421,-0.597 -0.695,-0.92 -1.416,-1.74 -0.347,0.421 -0.522,0.595 -1.193,1.018 1.591,1.591 2.411,2.76 3.405,4.922 0.274,0.621 0.398,0.92 0.473,1.417 l 1.641,-0.522 c -0.1,-0.174 -0.399,-0.772 -0.896,-1.791 h 8.377 c 1.591,0 2.437,0.05 3.008,0.15 v -1.665 c -0.671,0.098 -1.616,0.148 -2.958,0.148 h -9.172 c -0.35,-0.595 -0.671,-1.117 -0.97,-1.541 0.497,-0.05 1.168,-0.074 1.989,-0.074 h 7.059 c 1.144,0 1.765,0.024 2.337,0.1 C 9.321,9.893 9.296,9.444 9.296,8.054 V 5.096 C 9.296,3.753 9.321,3.23 9.371,2.733 8.725,2.809 8.178,2.834 7.134,2.834 H 1.914 C 1.564,2.336 1.019,1.591 0.696,1.218 H 6.14 c 1.018,0 1.541,0.025 1.914,0.124 z M -4.623,14.615 c -0.199,-0.223 -0.299,-0.347 -0.696,-0.869 -1.541,-2.063 -2.834,-3.308 -4.847,-4.748 -0.273,0.497 -0.547,0.819 -1.045,1.243 1.864,1.117 3.257,2.436 4.549,4.249 0.299,0.399 0.448,0.672 0.597,1.07 z M -6.812,-3.929 c 0,-1.191 0.051,-2.161 0.15,-3.055 h -1.839 c 0.1,0.745 0.148,1.739 0.148,2.982 v 5.318 c 0,1.044 0.026,1.79 0.076,2.884 -0.746,-1.094 -1.244,-1.665 -2.387,-2.636 -0.298,0.648 -0.472,0.971 -0.896,1.394 2.015,1.614 3.307,3.132 4.623,5.442 0.375,0.648 0.574,1.044 0.698,1.417 L -4.798,8.973 C -5.021,8.625 -5.046,8.575 -5.295,8.178 -5.767,7.333 -6.214,6.637 -6.812,5.841 Z"
             style="fill:none;stroke:#2a2827;stroke-width:0.5;stroke-linecap:butt;stroke-linejoin:miter;stroke-miterlimit:10;stroke-dasharray:none;stroke-opacity:1"
             id="path46" /></g><g
           id="g48"
           transform="translate(133.541,65.0293)"><path
             d="m 0,0 c -0.024,-0.323 -0.024,-0.323 -0.024,-0.971 -0.026,-3.304 -0.547,-6.661 -1.393,-8.924 -0.497,-1.316 -1.019,-2.26 -1.864,-3.404 -0.522,0.496 -0.795,0.721 -1.392,1.044 1.094,1.366 1.815,2.809 2.312,4.723 0.547,2.136 0.795,5.469 0.795,11.184 0,1.618 -0.049,2.785 -0.124,3.407 h 0.298 c 1.342,0 3.828,0.497 5.891,1.142 1.044,0.349 1.665,0.623 2.287,1.07 L 8.054,7.879 C 7.805,7.805 7.805,7.805 7.134,7.531 5.096,6.686 3.206,6.214 0,5.69 V 1.44 h 6.312 c 1.121,0 1.692,0.051 2.263,0.151 V -0.125 C 7.979,-0.025 7.407,0 6.413,0 h -0.92 v -10.838 c 0,-1.243 0.026,-1.864 0.15,-2.485 H 3.729 c 0.099,0.644 0.149,1.266 0.149,2.485 L 3.878,0 Z m -5.27,-5.396 c 1.218,-1.615 1.567,-2.162 2.337,-3.703 l -1.342,-0.819 c -0.647,1.689 -1.12,2.56 -2.188,3.952 z m -5.443,6.887 c -0.423,1.392 -0.746,2.161 -1.417,3.329 l 1.317,0.497 c 0.697,-1.241 0.995,-1.987 1.392,-3.354 z m 1.864,5.493 c -0.373,0.696 -0.696,1.168 -1.367,2.014 l 1.467,0.546 c 1.068,-1.591 1.068,-1.591 1.591,-2.56 h 1.963 c 1.019,0 1.466,0.025 2.063,0.123 V 5.442 C -3.803,5.543 -4.25,5.566 -5.22,5.566 h -6.189 c -1.02,0 -1.491,-0.023 -2.162,-0.124 V 7.107 C -13,7.009 -12.479,6.984 -11.385,6.984 Z M -11.98,-4.275 c -0.97,0 -1.443,-0.027 -2.064,-0.15 v 1.641 c 0.571,-0.124 1.094,-0.151 2.088,-0.151 h 3.058 v 1.145 c 0,0.322 -0.05,0.721 -0.1,1.019 h 1.641 c -0.05,-0.298 -0.1,-0.697 -0.1,-1.019 v -1.145 h 2.734 c 0.869,0 1.342,0.027 1.989,0.151 V -4.4 c -0.572,0.098 -1.069,0.125 -1.989,0.125 h -2.734 v -6.936 c 0,-1.343 -0.473,-1.69 -2.262,-1.69 -0.547,0 -1.168,0.025 -1.566,0.075 v 0.222 c 0,0.349 -0.124,0.822 -0.323,1.292 0.895,-0.172 1.317,-0.222 1.889,-0.222 0.621,0 0.821,0.125 0.821,0.521 v 6.738 z m 7.357,5.543 c 0.944,0 1.441,0.024 2.013,0.124 v -1.665 c -0.596,0.098 -1.093,0.124 -2.013,0.124 h -7.383 c -0.944,0 -1.467,-0.026 -2.062,-0.124 v 1.665 c 0.571,-0.1 1.068,-0.124 2.062,-0.124 h 4.449 c 0.946,1.615 1.318,2.559 1.666,4.076 L -4.399,4.871 C -4.972,3.38 -5.543,2.187 -6.09,1.268 Z m -5.717,-7.234 c -0.895,-2.338 -1.716,-3.805 -3.008,-5.443 -0.223,0.147 -0.223,0.147 -0.572,0.422 -0.124,0.098 -0.298,0.222 -0.745,0.497 1.491,1.74 2.112,2.834 2.908,5.02 z"
             style="fill:#282726;fill-opacity:1;fill-rule:nonzero;stroke:none"
             id="path50" /></g><g
           id="g52"
           transform="translate(133.541,65.0293)"><path
             d="m 0,0 c -0.024,-0.323 -0.024,-0.323 -0.024,-0.971 -0.026,-3.304 -0.547,-6.661 -1.393,-8.924 -0.497,-1.316 -1.019,-2.26 -1.864,-3.404 -0.522,0.496 -0.795,0.721 -1.392,1.044 1.094,1.366 1.815,2.809 2.312,4.723 0.547,2.136 0.795,5.469 0.795,11.184 0,1.618 -0.049,2.785 -0.124,3.407 h 0.298 c 1.342,0 3.828,0.497 5.891,1.142 1.044,0.349 1.665,0.623 2.287,1.07 L 8.054,7.879 C 7.805,7.805 7.805,7.805 7.134,7.531 5.096,6.686 3.206,6.214 0,5.69 V 1.44 h 6.312 c 1.121,0 1.692,0.051 2.263,0.151 V -0.125 C 7.979,-0.025 7.407,0 6.413,0 h -0.92 v -10.838 c 0,-1.243 0.026,-1.864 0.15,-2.485 H 3.729 c 0.099,0.644 0.149,1.266 0.149,2.485 L 3.878,0 Z m -5.27,-5.396 c 1.218,-1.615 1.567,-2.162 2.337,-3.703 l -1.342,-0.819 c -0.647,1.689 -1.12,2.56 -2.188,3.952 z m -5.443,6.887 c -0.423,1.392 -0.746,2.161 -1.417,3.329 l 1.317,0.497 c 0.697,-1.241 0.995,-1.987 1.392,-3.354 z m 1.864,5.493 c -0.373,0.696 -0.696,1.168 -1.367,2.014 l 1.467,0.546 c 1.068,-1.591 1.068,-1.591 1.591,-2.56 h 1.963 c 1.019,0 1.466,0.025 2.063,0.123 V 5.442 C -3.803,5.543 -4.25,5.566 -5.22,5.566 h -6.189 c -1.02,0 -1.491,-0.023 -2.162,-0.124 V 7.107 C -13,7.009 -12.479,6.984 -11.385,6.984 Z M -11.98,-4.275 c -0.97,0 -1.443,-0.027 -2.064,-0.15 v 1.641 c 0.571,-0.124 1.094,-0.151 2.088,-0.151 h 3.058 v 1.145 c 0,0.322 -0.05,0.721 -0.1,1.019 h 1.641 c -0.05,-0.298 -0.1,-0.697 -0.1,-1.019 v -1.145 h 2.734 c 0.869,0 1.342,0.027 1.989,0.151 V -4.4 c -0.572,0.098 -1.069,0.125 -1.989,0.125 h -2.734 v -6.936 c 0,-1.343 -0.473,-1.69 -2.262,-1.69 -0.547,0 -1.168,0.025 -1.566,0.075 v 0.222 c 0,0.349 -0.124,0.822 -0.323,1.292 0.895,-0.172 1.317,-0.222 1.889,-0.222 0.621,0 0.821,0.125 0.821,0.521 v 6.738 z m 7.357,5.543 c 0.944,0 1.441,0.024 2.013,0.124 v -1.665 c -0.596,0.098 -1.093,0.124 -2.013,0.124 h -7.383 c -0.944,0 -1.467,-0.026 -2.062,-0.124 v 1.665 c 0.571,-0.1 1.068,-0.124 2.062,-0.124 h 4.449 c 0.946,1.615 1.318,2.559 1.666,4.076 L -4.399,4.871 C -4.972,3.38 -5.543,2.187 -6.09,1.268 Z m -5.717,-7.234 c -0.895,-2.338 -1.716,-3.805 -3.008,-5.443 -0.223,0.147 -0.223,0.147 -0.572,0.422 -0.124,0.098 -0.298,0.222 -0.745,0.497 1.491,1.74 2.112,2.834 2.908,5.02 z"
             style="fill:none;stroke:#2a2827;stroke-width:0.5;stroke-linecap:butt;stroke-linejoin:miter;stroke-miterlimit:10;stroke-dasharray:none;stroke-opacity:1"
             id="path54" /></g><g
           id="g56"
           transform="translate(165.8047,74.126)"><path
             d="m 0,0 c -0.124,-0.721 -0.174,-1.565 -0.174,-3.007 v -16.505 c 0,-1.815 -0.497,-2.188 -2.958,-2.188 -0.621,0 -1.069,0.025 -2.263,0.1 -0.098,0.696 -0.198,1.068 -0.446,1.591 1.044,-0.175 2.038,-0.249 2.983,-0.249 0.894,0 1.093,0.124 1.093,0.746 v 16.48 c 0,1.491 -0.049,2.237 -0.173,3.032 z m -5.27,-1.616 c -0.125,-0.621 -0.149,-1.317 -0.149,-2.709 v -9.495 c 0,-1.665 0.024,-2.113 0.125,-2.784 h -1.815 c 0.099,0.695 0.125,1.192 0.125,2.784 v 9.495 c 0,1.318 -0.05,2.039 -0.15,2.709 z m -9.942,-1.814 c 0.82,-0.72 1.591,-1.491 2.386,-2.486 l -1.144,-0.845 c -1.068,1.367 -1.367,1.691 -2.311,2.486 z m -1.467,-16.356 h 5.741 v 2.982 h -5.741 z m 5.569,9.893 v 1.541 h -6.886 V -9.52 -9.893 Z m -6.911,-1.193 c -0.049,-0.894 -0.049,-0.894 -0.125,-1.715 h 7.036 v 1.715 z m 1.318,-9.942 v -1.219 h -1.567 c 0.075,0.598 0.124,1.292 0.124,2.063 v 2.734 c 0,0.971 -0.024,1.367 -0.074,1.965 0.522,-0.051 0.895,-0.075 1.865,-0.075 h 5.219 c 0.697,0 1.144,0.024 1.765,0.1 -0.074,-0.597 -0.1,-0.996 -0.1,-1.865 v -2.51 c 0,-0.821 0.026,-1.441 0.125,-2.039 h -1.566 v 0.846 z m 2.558,20.158 c 3.207,-1.863 3.656,-2.187 5.744,-3.754 l -0.97,-1.316 c -1.715,1.565 -2.212,1.914 -5.543,4.027 -0.745,-0.996 -1.292,-1.641 -2.112,-2.437 -1.02,-1.044 -1.494,-1.392 -3.854,-3.082 -0.198,0.472 -0.422,0.745 -1.044,1.342 1.567,0.845 2.685,1.616 3.754,2.66 1.094,1.044 2.063,2.286 3.008,3.779 l 1.416,-0.647 z m -4.1,-13.149 c -0.497,-3.306 -0.994,-4.773 -2.436,-7.357 -0.472,0.522 -0.77,0.794 -1.267,1.118 1.814,2.808 2.511,5.866 2.511,10.862 0,1.044 -0.026,1.69 -0.1,2.361 0.845,-0.073 1.317,-0.099 2.411,-0.099 h 5.567 c 0.821,0 1.194,0.026 1.94,0.099 -0.075,-0.57 -0.1,-1.068 -0.1,-1.888 v -3.306 c 0,-0.846 0.025,-1.318 0.1,-1.865 -0.597,0.05 -0.994,0.075 -1.79,0.075 z"
             style="fill:#282726;fill-opacity:1;fill-rule:nonzero;stroke:none"
             id="path58" /></g><g
           id="g60"
           transform="translate(165.8047,74.126)"><path
             d="m 0,0 c -0.124,-0.721 -0.174,-1.565 -0.174,-3.007 v -16.505 c 0,-1.815 -0.497,-2.188 -2.958,-2.188 -0.621,0 -1.069,0.025 -2.263,0.1 -0.098,0.696 -0.198,1.068 -0.446,1.591 1.044,-0.175 2.038,-0.249 2.983,-0.249 0.894,0 1.093,0.124 1.093,0.746 v 16.48 c 0,1.491 -0.049,2.237 -0.173,3.032 z m -5.27,-1.616 c -0.125,-0.621 -0.149,-1.317 -0.149,-2.709 v -9.495 c 0,-1.665 0.024,-2.113 0.125,-2.784 h -1.815 c 0.099,0.695 0.125,1.192 0.125,2.784 v 9.495 c 0,1.318 -0.05,2.039 -0.15,2.709 z m -9.942,-1.814 c 0.82,-0.72 1.591,-1.491 2.386,-2.486 l -1.144,-0.845 c -1.068,1.367 -1.367,1.691 -2.311,2.486 z m -1.467,-16.356 h 5.741 v 2.982 h -5.741 z m 5.569,9.893 v 1.541 h -6.886 V -9.52 -9.893 Z m -6.911,-1.193 c -0.049,-0.894 -0.049,-0.894 -0.125,-1.715 h 7.036 v 1.715 z m 1.318,-9.942 v -1.219 h -1.567 c 0.075,0.598 0.124,1.292 0.124,2.063 v 2.734 c 0,0.971 -0.024,1.367 -0.074,1.965 0.522,-0.051 0.895,-0.075 1.865,-0.075 h 5.219 c 0.697,0 1.144,0.024 1.765,0.1 -0.074,-0.597 -0.1,-0.996 -0.1,-1.865 v -2.51 c 0,-0.821 0.026,-1.441 0.125,-2.039 h -1.566 v 0.846 z m 2.558,20.158 c 3.207,-1.863 3.656,-2.187 5.744,-3.754 l -0.97,-1.316 c -1.715,1.565 -2.212,1.914 -5.543,4.027 -0.745,-0.996 -1.292,-1.641 -2.112,-2.437 -1.02,-1.044 -1.494,-1.392 -3.854,-3.082 -0.198,0.472 -0.422,0.745 -1.044,1.342 1.567,0.845 2.685,1.616 3.754,2.66 1.094,1.044 2.063,2.286 3.008,3.779 l 1.416,-0.647 z m -4.1,-13.149 c -0.497,-3.306 -0.994,-4.773 -2.436,-7.357 -0.472,0.522 -0.77,0.794 -1.267,1.118 1.814,2.808 2.511,5.866 2.511,10.862 0,1.044 -0.026,1.69 -0.1,2.361 0.845,-0.073 1.317,-0.099 2.411,-0.099 h 5.567 c 0.821,0 1.194,0.026 1.94,0.099 -0.075,-0.57 -0.1,-1.068 -0.1,-1.888 v -3.306 c 0,-0.846 0.025,-1.318 0.1,-1.865 -0.597,0.05 -0.994,0.075 -1.79,0.075 z"
             style="fill:none;stroke:#2a2827;stroke-width:0.5;stroke-linecap:butt;stroke-linejoin:miter;stroke-miterlimit:10;stroke-dasharray:none;stroke-opacity:1"
             id="path62" /></g><g
           id="g64"
           transform="translate(182.583,69.8018)"><path
             d="M 0,0 C -0.846,0.694 -1.069,0.869 -1.964,1.516 -2.958,0.869 -3.48,0.596 -4.896,-0.05 c -0.324,0.496 -0.5,0.696 -0.796,0.969 1.293,0.447 1.764,0.671 2.709,1.242 -0.646,0.423 -1.019,0.647 -2.063,1.193 l 0.771,0.821 c 1.118,-0.596 1.541,-0.821 2.336,-1.342 0.746,0.547 1.043,0.795 1.765,1.591 L 0.845,3.628 C 0.05,2.933 0,2.907 -0.944,2.187 -0.323,1.764 -0.025,1.565 0.845,0.943 Z m 0.1,-4.524 c -0.946,0.77 -1.293,1.019 -2.039,1.541 -1.093,-0.671 -1.64,-0.946 -3.057,-1.516 -0.275,0.446 -0.423,0.621 -0.82,0.994 1.367,0.422 1.864,0.646 2.833,1.192 -0.547,0.374 -0.895,0.546 -1.939,1.093 l 0.819,0.822 c 1.095,-0.597 1.493,-0.822 2.139,-1.244 0.746,0.523 1.044,0.772 1.765,1.517 L 0.795,-0.92 C -0.05,-1.642 -0.373,-1.914 -0.92,-2.313 -0.224,-2.76 0.05,-2.958 0.969,-3.63 Z m -10.242,-8.998 c -1.367,0 -2.113,-0.05 -2.834,-0.15 v 1.615 c 0.697,-0.098 1.417,-0.148 2.834,-0.148 h 7.234 c 0,0.473 -0.026,0.97 -0.075,1.417 h 0.895 c 1.641,0.472 2.635,0.87 4.052,1.615 H -7.06 c -1.168,0 -1.79,-0.024 -2.361,-0.124 v 1.49 c 0.597,-0.098 1.168,-0.124 2.312,-0.124 h 9.122 c 0.87,0 1.392,0.026 1.79,0.101 L 4.772,-8.874 C 4.399,-9.048 4.399,-9.048 2.609,-10.067 1.789,-10.54 0.174,-11.211 -1.417,-11.708 v -0.497 h 7.134 c 1.441,0 2.137,0.05 2.858,0.148 v -1.615 c -0.745,0.125 -1.467,0.15 -2.883,0.15 h -7.109 v -2.611 c 0,-1.467 -0.571,-1.864 -2.686,-1.864 -0.62,0 -1.092,0.024 -1.863,0.075 -0.074,0.547 -0.174,0.943 -0.423,1.49 1.169,-0.124 1.865,-0.172 2.461,-0.172 0.846,0 1.02,0.124 1.02,0.77 v 2.312 z m 2.337,14.267 c 0.795,0 1.168,0.026 1.541,0.1 v -1.319 c -0.373,0.051 -0.895,0.076 -1.541,0.076 h -1.864 l 0.099,-1.715 h 1.765 c 0.795,0 1.168,0.024 1.541,0.098 v -1.293 c -0.423,0.051 -0.845,0.077 -1.541,0.077 h -1.716 l 0.1,-1.641 H 5.07 l 0.076,1.564 H 3.331 c -0.672,0 -1.094,-0.023 -1.518,-0.073 v 1.268 c 0.325,-0.05 0.772,-0.075 1.518,-0.075 H 5.22 l 0.099,1.69 H 3.331 c -0.646,0 -1.143,-0.024 -1.518,-0.074 V 0.745 C 2.112,0.671 2.585,0.646 3.331,0.646 H 5.369 L 5.468,2.485 H 3.256 C 2.511,2.485 2.188,2.46 1.789,2.411 V 3.803 C 2.212,3.728 2.609,3.702 3.331,3.702 H 5.344 C 6.09,3.702 6.537,3.728 7.01,3.778 6.91,3.081 6.885,2.709 6.86,1.937 L 6.487,-4.872 c 0.647,0 1.442,0.023 2.088,0.1 -0.074,-0.547 -0.099,-0.997 -0.099,-1.89 v -0.845 c 0,-0.572 0.025,-0.945 0.125,-1.541 H 6.984 v 2.907 h -18.419 v -2.907 h -1.615 c 0.074,0.57 0.124,1.094 0.124,1.614 v 0.772 c 0,0.82 -0.024,1.316 -0.099,1.89 0.696,-0.077 1.466,-0.1 2.187,-0.1 l -0.349,6.388 c -0.024,0.571 -0.048,0.92 -0.148,1.442 2.113,0.422 3.579,0.919 4.475,1.541 L -5.99,3.28 C -6.09,3.231 -6.09,3.231 -6.513,3.057 -7.656,2.608 -8.401,2.36 -9.794,2.038 l 0.075,-1.293 z"
             style="fill:#282726;fill-opacity:1;fill-rule:nonzero;stroke:none"
             id="path66" /></g><g
           id="g68"
           transform="translate(182.583,69.8018)"><path
             d="M 0,0 C -0.846,0.694 -1.069,0.869 -1.964,1.516 -2.958,0.869 -3.48,0.596 -4.896,-0.05 c -0.324,0.496 -0.5,0.696 -0.796,0.969 1.293,0.447 1.764,0.671 2.709,1.242 -0.646,0.423 -1.019,0.647 -2.063,1.193 l 0.771,0.821 c 1.118,-0.596 1.541,-0.821 2.336,-1.342 0.746,0.547 1.043,0.795 1.765,1.591 L 0.845,3.628 C 0.05,2.933 0,2.907 -0.944,2.187 -0.323,1.764 -0.025,1.565 0.845,0.943 Z m 0.1,-4.524 c -0.946,0.77 -1.293,1.019 -2.039,1.541 -1.093,-0.671 -1.64,-0.946 -3.057,-1.516 -0.275,0.446 -0.423,0.621 -0.82,0.994 1.367,0.422 1.864,0.646 2.833,1.192 -0.547,0.374 -0.895,0.546 -1.939,1.093 l 0.819,0.822 c 1.095,-0.597 1.493,-0.822 2.139,-1.244 0.746,0.523 1.044,0.772 1.765,1.517 L 0.795,-0.92 C -0.05,-1.642 -0.373,-1.914 -0.92,-2.313 -0.224,-2.76 0.05,-2.958 0.969,-3.63 Z m -10.242,-8.998 c -1.367,0 -2.113,-0.05 -2.834,-0.15 v 1.615 c 0.697,-0.098 1.417,-0.148 2.834,-0.148 h 7.234 c 0,0.473 -0.026,0.97 -0.075,1.417 h 0.895 c 1.641,0.472 2.635,0.87 4.052,1.615 H -7.06 c -1.168,0 -1.79,-0.024 -2.361,-0.124 v 1.49 c 0.597,-0.098 1.168,-0.124 2.312,-0.124 h 9.122 c 0.87,0 1.392,0.026 1.79,0.101 L 4.772,-8.874 C 4.399,-9.048 4.399,-9.048 2.609,-10.067 1.789,-10.54 0.174,-11.211 -1.417,-11.708 v -0.497 h 7.134 c 1.441,0 2.137,0.05 2.858,0.148 v -1.615 c -0.745,0.125 -1.467,0.15 -2.883,0.15 h -7.109 v -2.611 c 0,-1.467 -0.571,-1.864 -2.686,-1.864 -0.62,0 -1.092,0.024 -1.863,0.075 -0.074,0.547 -0.174,0.943 -0.423,1.49 1.169,-0.124 1.865,-0.172 2.461,-0.172 0.846,0 1.02,0.124 1.02,0.77 v 2.312 z m 2.337,14.267 c 0.795,0 1.168,0.026 1.541,0.1 v -1.319 c -0.373,0.051 -0.895,0.076 -1.541,0.076 h -1.864 l 0.099,-1.715 h 1.765 c 0.795,0 1.168,0.024 1.541,0.098 v -1.293 c -0.423,0.051 -0.845,0.077 -1.541,0.077 h -1.716 l 0.1,-1.641 H 5.07 l 0.076,1.564 H 3.331 c -0.672,0 -1.094,-0.023 -1.518,-0.073 v 1.268 c 0.325,-0.05 0.772,-0.075 1.518,-0.075 H 5.22 l 0.099,1.69 H 3.331 c -0.646,0 -1.143,-0.024 -1.518,-0.074 V 0.745 C 2.112,0.671 2.585,0.646 3.331,0.646 H 5.369 L 5.468,2.485 H 3.256 C 2.511,2.485 2.188,2.46 1.789,2.411 V 3.803 C 2.212,3.728 2.609,3.702 3.331,3.702 H 5.344 C 6.09,3.702 6.537,3.728 7.01,3.778 6.91,3.081 6.885,2.709 6.86,1.937 L 6.487,-4.872 c 0.647,0 1.442,0.023 2.088,0.1 -0.074,-0.547 -0.099,-0.997 -0.099,-1.89 v -0.845 c 0,-0.572 0.025,-0.945 0.125,-1.541 H 6.984 v 2.907 h -18.419 v -2.907 h -1.615 c 0.074,0.57 0.124,1.094 0.124,1.614 v 0.772 c 0,0.82 -0.024,1.316 -0.099,1.89 0.696,-0.077 1.466,-0.1 2.187,-0.1 l -0.349,6.388 c -0.024,0.571 -0.048,0.92 -0.148,1.442 2.113,0.422 3.579,0.919 4.475,1.541 L -5.99,3.28 C -6.09,3.231 -6.09,3.231 -6.513,3.057 -7.656,2.608 -8.401,2.36 -9.794,2.038 l 0.075,-1.293 z"
             style="fill:none;stroke:#2a2827;stroke-width:0.5;stroke-linecap:butt;stroke-linejoin:miter;stroke-miterlimit:10;stroke-dasharray:none;stroke-opacity:1"
             id="path70" /></g><g
           id="g72"
           transform="translate(207.3887,63.2393)"><path
             d="M 0,0 C 0.745,0.895 1.193,1.591 1.665,2.635 L 2.883,1.987 C 2.336,0.97 1.914,0.348 1.144,-0.598 Z m -1.665,-0.971 h 6.288 v 4.053 h -6.288 z m 1.591,7.83 c 0.372,0 0.645,0 1.068,0.026 -1.193,0.672 -2.411,1.541 -3.703,2.66 -1.069,-1.019 -2.113,-1.816 -3.356,-2.61 0.422,-0.05 0.87,-0.076 1.566,-0.076 z M -5.816,-0.547 C -6.264,0.497 -6.637,1.192 -7.308,2.111 L -6.14,2.659 C -5.443,1.665 -5.071,1.019 -4.623,0.05 Z M -7.581,-9.271 H 3.182 v 1.74 H -7.581 Z m 0,2.908 H 3.182 v 1.69 H -7.581 Z m -1.393,5.392 h 5.94 v 4.053 h -5.94 z m -0.098,-4.821 c 0,1.02 -0.026,1.666 -0.1,2.387 1.268,-0.05 2.236,-0.075 3.156,-0.075 h 8.402 c 1.193,0 1.889,0.025 2.385,0.099 C 4.698,-3.952 4.673,-4.549 4.673,-5.667 v -3.432 c 0,-0.993 0.05,-1.689 0.149,-2.384 h -1.64 v 1.018 H -7.581 v -0.944 h -1.641 c 0.1,0.746 0.15,1.367 0.15,2.287 z m 0.843,3.653 c -0.993,0 -1.664,-0.024 -2.286,-0.098 0.076,0.572 0.124,1.341 0.124,2.187 v 2.088 c 0,0.845 -0.024,1.467 -0.098,2.312 0.571,-0.05 1.317,-0.076 2.286,-0.076 H 3.703 c 1.243,0 1.467,0 2.387,0.076 C 6.04,2.908 6.04,2.883 6.04,2.014 V 0.023 c 0,-0.967 0.024,-1.564 0.074,-2.235 -0.571,0.049 -1.343,0.073 -2.286,0.073 z M -1.69,10.563 C -0.497,9.495 0.521,8.799 2.112,7.929 3.331,7.283 4.648,6.687 6.363,6.063 7.83,5.519 8.302,5.394 9.595,5.146 8.948,4.126 8.874,4.002 8.725,3.579 5.096,4.872 3.977,5.318 1.74,6.486 V 5.543 c -0.547,0.1 -1.069,0.124 -1.79,0.124 h -4.449 c -0.896,0 -1.343,-0.024 -1.89,-0.124 V 6.735 C -7.109,6.289 -8.153,5.717 -9.346,5.096 -10.241,4.623 -10.688,4.425 -12.95,3.528 c -0.323,0.622 -0.547,0.921 -1.02,1.368 2.287,0.597 4.276,1.466 6.439,2.785 2.062,1.267 3.504,2.461 4.822,4.027 l 1.392,-0.747 z"
             style="fill:#282726;fill-opacity:1;fill-rule:nonzero;stroke:none"
             id="path74" /></g><g
           id="g76"
           transform="translate(207.3887,63.2393)"><path
             d="M 0,0 C 0.745,0.895 1.193,1.591 1.665,2.635 L 2.883,1.987 C 2.336,0.97 1.914,0.348 1.144,-0.598 Z m -1.665,-0.971 h 6.288 v 4.053 h -6.288 z m 1.591,7.83 c 0.372,0 0.645,0 1.068,0.026 -1.193,0.672 -2.411,1.541 -3.703,2.66 -1.069,-1.019 -2.113,-1.816 -3.356,-2.61 0.422,-0.05 0.87,-0.076 1.566,-0.076 z M -5.816,-0.547 C -6.264,0.497 -6.637,1.192 -7.308,2.111 L -6.14,2.659 C -5.443,1.665 -5.071,1.019 -4.623,0.05 Z M -7.581,-9.271 H 3.182 v 1.74 H -7.581 Z m 0,2.908 H 3.182 v 1.69 H -7.581 Z m -1.393,5.392 h 5.94 v 4.053 h -5.94 z m -0.098,-4.821 c 0,1.02 -0.026,1.666 -0.1,2.387 1.268,-0.05 2.236,-0.075 3.156,-0.075 h 8.402 c 1.193,0 1.889,0.025 2.385,0.099 C 4.698,-3.952 4.673,-4.549 4.673,-5.667 v -3.432 c 0,-0.993 0.05,-1.689 0.149,-2.384 h -1.64 v 1.018 H -7.581 v -0.944 h -1.641 c 0.1,0.746 0.15,1.367 0.15,2.287 z m 0.843,3.653 c -0.993,0 -1.664,-0.024 -2.286,-0.098 0.076,0.572 0.124,1.341 0.124,2.187 v 2.088 c 0,0.845 -0.024,1.467 -0.098,2.312 0.571,-0.05 1.317,-0.076 2.286,-0.076 H 3.703 c 1.243,0 1.467,0 2.387,0.076 C 6.04,2.908 6.04,2.883 6.04,2.014 V 0.023 c 0,-0.967 0.024,-1.564 0.074,-2.235 -0.571,0.049 -1.343,0.073 -2.286,0.073 z M -1.69,10.563 C -0.497,9.495 0.521,8.799 2.112,7.929 3.331,7.283 4.648,6.687 6.363,6.063 7.83,5.519 8.302,5.394 9.595,5.146 8.948,4.126 8.874,4.002 8.725,3.579 5.096,4.872 3.977,5.318 1.74,6.486 V 5.543 c -0.547,0.1 -1.069,0.124 -1.79,0.124 h -4.449 c -0.896,0 -1.343,-0.024 -1.89,-0.124 V 6.735 C -7.109,6.289 -8.153,5.717 -9.346,5.096 -10.241,4.623 -10.688,4.425 -12.95,3.528 c -0.323,0.622 -0.547,0.921 -1.02,1.368 2.287,0.597 4.276,1.466 6.439,2.785 2.062,1.267 3.504,2.461 4.822,4.027 l 1.392,-0.747 z"
             style="fill:none;stroke:#2a2827;stroke-width:0.5;stroke-linecap:butt;stroke-linejoin:miter;stroke-miterlimit:10;stroke-dasharray:none;stroke-opacity:1"
             id="path78" /></g><g
           id="g80"
           transform="translate(64.3389,40.4922)"><path
             d="m 0,0 -1.904,-7.302 c -0.28,-1.069 -0.531,-1.325 -1.95,-1.565 0.104,0.546 0.088,0.803 -0.063,1.1 0.785,-0.189 1.168,-0.028 1.276,0.39 l 1.6,6.134 c 0.276,1.058 0.386,1.509 0.424,1.798 C -0.39,0.514 -0.136,0.503 0.173,0.523 0.342,0.536 0.327,0.407 0.182,0.312 0.092,0.247 0.045,0.171 0,0 m -1.966,-1.343 -0.869,-3.328 c -0.182,-0.695 -0.269,-1.07 -0.361,-1.53 L -3.96,-6.203 c 0.147,0.46 0.256,0.835 0.438,1.53 l 0.671,2.579 c 0.168,0.644 0.268,1.061 0.31,1.327 0.234,-0.051 0.568,-0.072 0.755,-0.06 0.14,0.01 0.131,-0.096 -0.014,-0.194 -0.078,-0.053 -0.107,-0.096 -0.166,-0.322 m -3.087,0.486 c 0.05,-0.374 0.074,-0.707 0.088,-1.071 l -0.766,-0.087 c 0.03,0.396 0.007,0.588 -0.076,0.943 z m 0.529,-1.882 -2.279,-0.006 -0.148,-0.568 2.278,0.005 z m -2.743,-1.782 2.279,0.004 0.165,0.631 -2.279,-0.006 z m 1.801,-1.827 -1.846,-0.005 -0.292,-1.124 1.845,0.005 z m -1.599,4.211 1.69,0.006 c 1.111,0.002 1.39,0.014 1.719,0.046 -0.077,-0.192 -0.126,-0.343 -0.204,-0.643 l -0.431,-1.647 c -0.092,-0.354 -0.124,-0.515 -0.163,-0.771 -0.185,0.033 -0.375,0.042 -0.963,0.042 L -7.466,-5.11 c -0.042,-0.161 -0.134,-0.375 -0.265,-0.632 0.326,-0.022 0.753,-0.03 1.552,-0.029 0.983,0.002 1.326,0.014 1.592,0.046 -0.074,-0.181 -0.138,-0.384 -0.246,-0.801 L -5.091,-7.513 C -5.204,-7.95 -5.276,-8.262 -5.338,-8.604 h -0.717 l 0.146,0.556 -1.846,-0.006 -0.19,-0.727 -0.644,-10e-4 c 0.117,0.343 0.207,0.652 0.322,1.092 l 0.316,1.21 c 0.064,0.245 0.108,0.418 0.127,0.556 -0.34,-0.634 -0.86,-1.427 -1.282,-1.888 -0.137,0.214 -0.259,0.343 -0.567,0.502 0.926,0.806 1.521,1.748 1.937,3.344 l 0.416,1.595 c -0.189,-0.162 -0.4,-0.333 -0.62,-0.517 -0.069,0.268 -0.159,0.417 -0.319,0.577 1.539,1.15 2.285,1.933 3.208,3.217 0.228,-0.147 0.547,-0.329 0.73,-0.402 C -4.213,0.46 -4.247,0.363 -4.39,0.31 -4.49,0.276 -4.599,0.214 -4.713,0.128 c 0.511,-0.331 1.052,-0.789 1.602,-1.356 l -0.69,-0.708 c -0.278,0.483 -0.703,0.961 -1.441,1.582 -0.779,-0.805 -1.288,-1.31 -1.823,-1.783"
             style="fill:#ffffff;fill-opacity:1;fill-rule:nonzero;stroke:none"
             id="path82" /></g><g
           id="g84"
           transform="translate(77.876,37.7246)"><path
             d="M 0,0 C 0.652,0.002 0.979,0.023 1.393,0.132 L 1.13,-0.875 c -0.299,0.087 -0.502,0.116 -0.938,0.138 l -0.985,-3.78 C -0.96,-5.158 -1.07,-5.65 -1.163,-6.22 l -0.891,-0.002 c 0.211,0.602 0.35,1.062 0.517,1.703 l 0.985,3.78 -0.836,-0.002 c -0.715,-2.602 -1.391,-4.036 -2.504,-5.376 -0.173,0.212 -0.291,0.288 -0.72,0.435 1.119,1.02 1.734,2.22 2.643,5.419 0.358,1.265 0.605,2.388 0.704,2.945 C -0.48,2.631 0.795,2.943 1.632,3.299 1.662,3.031 1.787,2.594 1.88,2.454 2.01,2.252 1.94,2.196 1.725,2.251 1.544,2.293 1.382,2.271 0.534,2.151 -0.172,2.054 -0.267,2.043 -0.667,2.021 l -0.527,-2.024 z m -4.368,-4.707 c -0.069,0.608 -0.184,0.982 -0.403,1.379 l 0.655,0.429 c 0.211,-0.459 0.335,-0.79 0.521,-1.272 z M -5.48,0.07 c 0.027,0.493 0.002,0.784 -0.107,1.071 l 0.77,0.312 C -4.796,1.11 -4.755,0.812 -4.665,0.384 Z m 1.461,3.245 0.877,0.197 C -3.166,3.138 -3.187,2.848 -3.206,2.389 -2.63,2.409 -2.2,2.442 -1.827,2.499 L -2.064,1.589 C -2.504,1.662 -3.071,1.705 -3.935,1.702 -4.798,1.699 -5.471,1.653 -5.95,1.579 l 0.237,0.909 c 0.406,-0.062 0.977,-0.092 1.728,-0.101 0,0.319 -0.008,0.639 -0.034,0.928 m 1.625,-3.267 -0.223,-0.859 c -0.405,0.065 -0.904,0.095 -1.634,0.105 l -0.279,-1.07 c 0.71,0.011 1.113,0.045 1.568,0.099 l -0.232,-0.887 c -0.412,0.073 -0.811,0.093 -1.518,0.091 l -0.631,-2.42 c -0.204,-0.782 -0.342,-0.919 -1.594,-1.147 0.069,0.301 0.088,0.651 -0.056,1.017 0.791,-0.17 0.904,-0.127 1.152,0.826 l 0.452,1.733 C -6.2,-2.477 -6.695,-2.51 -7.181,-2.574 l 0.233,0.887 c 0.451,-0.062 0.929,-0.093 1.738,-0.091 l 0.279,1.07 c -0.848,-0.014 -1.48,-0.047 -1.958,-0.112 l 0.224,0.857 c 0.532,-0.074 1.314,-0.104 2.4,-0.091 0.323,0.46 0.668,0.976 0.961,1.499 0.219,-0.213 0.412,-0.319 0.616,-0.383 0.092,-0.032 0.1,-0.106 -0.066,-0.181 -0.115,-0.053 -0.327,-0.27 -0.957,-0.923 0.536,0.012 0.958,0.046 1.317,0.09 m -4.112,-3.873 c -0.445,-0.545 -0.636,-0.782 -1.053,-1.362 -0.169,0.205 -0.353,0.298 -0.655,0.341 0.726,0.633 1.236,1.223 1.692,2.049 0.22,-0.141 0.468,-0.278 0.546,-0.3 0.188,-0.051 0.177,-0.094 -0.038,-0.215 -0.087,-0.052 -0.317,-0.297 -0.492,-0.513"
             style="fill:#ffffff;fill-opacity:1;fill-rule:nonzero;stroke:none"
             id="path86" /></g><g
           id="g88"
           transform="translate(115.0039,39.0654)"><path
             d="M 0,0 C -0.067,0.268 -0.129,0.416 -0.268,0.693 L 0.465,1.038 C 0.577,0.804 0.643,0.633 0.718,0.354 Z m -2.91,-2.01 -0.991,-0.002 -0.288,-1.101 0.991,0.002 z m 2.572,0.854 c 0.133,-0.128 0.436,-0.341 0.596,-0.427 0.127,-0.073 0.123,-0.128 -0.063,-0.203 -0.05,-0.023 -0.187,-0.193 -0.425,-0.578 -0.253,-0.407 -0.529,-0.793 -1.051,-1.458 0.189,-1.564 0.357,-1.55 0.763,-0.383 0.145,-0.256 0.305,-0.417 0.459,-0.491 -0.63,-1.328 -1.087,-1.457 -1.384,-1.084 -0.205,0.266 -0.319,0.534 -0.422,1.228 -0.506,-0.599 -0.996,-1.072 -1.481,-1.447 -0.166,0.202 -0.306,0.299 -0.554,0.437 0.843,0.494 1.394,0.987 1.962,1.715 -0.044,0.643 0.002,1.209 0.296,3.039 l -1.01,-0.003 C -3.58,-0.812 -4.213,-0.847 -4.656,-0.89 l 0.213,0.815 c 0.417,-0.053 1.037,-0.073 1.964,-0.071 l 0.946,0.001 c 0.083,0.461 0.151,0.792 0.222,1.136 0.209,-0.043 0.57,-0.073 0.764,-0.061 0.168,0.008 0.195,-0.066 0.012,-0.203 -0.103,-0.078 -0.16,-0.196 -0.222,-0.43 -0.039,-0.151 -0.075,-0.289 -0.114,-0.441 0.809,0.003 1.392,0.028 1.793,0.082 L 0.709,-0.875 c -0.365,0.041 -0.939,0.063 -1.735,0.068 -0.178,-0.822 -0.273,-1.571 -0.294,-2.181 0.392,0.59 0.675,1.145 0.982,1.832 m -3.517,-2.577 c -0.534,-10e-4 -0.848,-0.012 -1.129,-0.037 0.08,0.238 0.249,0.816 0.347,1.191 0.098,0.374 0.227,0.94 0.273,1.186 0.269,-0.018 0.579,-0.029 1.112,-0.028 0.542,0.001 0.82,0.014 1.11,0.034 -0.099,-0.308 -0.231,-0.749 -0.346,-1.186 -0.116,-0.441 -0.225,-0.932 -0.274,-1.191 -0.278,0.023 -0.551,0.032 -1.093,0.031 m 1.076,-0.907 c -0.564,-0.119 -2.084,-0.53 -2.874,-0.777 -0.001,0.31 -0.01,0.523 -0.053,0.888 1.042,0.055 2.483,0.338 3.16,0.607 -0.107,-0.235 -0.156,-0.387 -0.233,-0.718 m 4.336,5.821 -5.925,-0.016 -1.902,-7.29 5.925,0.016 z m -8.131,-8.473 -0.772,-0.002 c 0.2,0.589 0.361,1.135 0.526,1.768 l 1.689,6.474 C -5.02,1.377 -4.967,1.611 -4.928,1.9 -4.572,1.858 -3.914,1.852 -1.231,1.857 1.451,1.864 2.115,1.877 2.494,1.921 2.379,1.621 2.305,1.375 2.199,0.969 L 0.529,-5.434 C 0.367,-6.055 0.241,-6.61 0.125,-7.198 l -0.754,-0.002 0.111,0.428 -5.924,-0.016 z"
             style="fill:#ffffff;fill-opacity:1;fill-rule:nonzero;stroke:none"
             id="path90" /></g><g
           id="g92"
           transform="translate(131.7363,39.9209)"><path
             d="M 0,0 -0.983,-0.002 C -1.062,-0.655 -1.092,-1.266 -1.052,-1.672 -0.729,-1.275 -0.368,-0.706 0,0 m -1.611,-7.515 c -0.174,0.568 -0.491,1.113 -0.925,1.593 l 0.64,0.59 c 0.319,-0.501 0.757,-1.143 1.117,-1.56 z m -1.599,0.596 c -0.216,-0.824 -0.369,-1.027 -1.549,-1.224 0.107,0.483 0.086,0.612 -0.098,1.028 0.699,-0.17 0.86,-0.04 0.944,0.28 l 0.499,1.916 c -0.729,-0.013 -1.257,-0.035 -1.69,-0.078 l 0.206,0.792 c 0.501,-0.055 1.12,-0.073 2.056,-0.07 0.938,0.002 1.577,0.025 2.087,0.081 l -0.206,-0.792 c -0.431,0.041 -0.967,0.059 -1.727,0.069 z m 0.849,7.512 c 0.266,0.001 0.545,0.011 0.833,0.024 -0.54,-1.435 -1.031,-2.473 -1.962,-3.471 0.259,-0.033 0.547,-0.053 1.006,-0.051 0.468,10e-4 0.796,0.023 1.064,0.066 -0.367,0.951 -0.282,2.054 0.005,3.572 0.343,-0.019 0.745,-0.028 1.14,-0.027 0.45,0.001 0.921,0.012 1.285,0.033 -0.414,-0.951 -1.127,-2.174 -1.864,-3.063 0.236,-0.501 0.602,-0.822 1.189,-1.034 -0.324,-0.119 -0.657,-0.409 -0.879,-0.804 -0.406,0.416 -0.692,0.832 -0.866,1.291 L -1.601,-3.6 c -0.251,0.055 -0.571,0.065 -1.048,0.064 -0.487,-0.002 -0.82,-0.015 -1.091,-0.068 l 0.174,0.665 c -0.411,-0.41 -0.889,-0.837 -1.5,-1.278 -0.074,0.245 -0.163,0.396 -0.391,0.575 0.43,0.204 0.821,0.443 1.189,0.764 -0.105,0.191 -0.224,0.332 -0.38,0.471 l 0.558,0.664 c 0.074,-0.171 0.218,-0.397 0.384,-0.567 0.145,0.171 0.288,0.365 0.424,0.569 -0.11,0.214 -0.236,0.331 -0.501,0.47 l 0.564,0.686 c 0.108,-0.15 0.227,-0.288 0.374,-0.429 0.157,0.289 0.304,0.602 0.458,0.944 L -3.27,-0.072 c -0.428,-0.698 -0.928,-1.415 -1.587,-2.218 -0.151,0.158 -0.322,0.245 -0.579,0.286 0.915,0.826 1.785,2.295 2.332,3.622 C -2.848,1.437 -2.598,1.342 -2.371,1.331 -2.254,1.319 -2.243,1.257 -2.373,1.182 -2.523,1.096 -2.648,0.935 -2.866,0.592 Z M -4.52,-6.023 C -4.619,-6.057 -4.796,-6.174 -4.932,-6.305 -5.392,-6.731 -5.709,-7 -6.289,-7.461 c -0.151,0.19 -0.354,0.331 -0.617,0.447 0.779,0.419 1.427,0.998 1.996,1.705 0.134,-0.191 0.329,-0.425 0.492,-0.545 0.078,-0.05 0.058,-0.126 -0.102,-0.169 m -1.278,3.858 c 0.349,-0.845 0.393,-1.593 0.206,-2.311 -0.207,-0.793 -0.664,-1.273 -1.767,-1.565 0.083,0.354 0.095,0.578 0.023,1.006 0.756,-0.095 0.945,0.14 1.091,0.698 0.176,0.675 0.115,1.498 -0.171,2.085 l 1.273,2.526 -0.881,-0.002 -2.169,-8.316 -0.764,-0.002 c 0.391,1.178 0.503,1.573 0.731,2.45 l 1.45,5.558 c 0.103,0.394 0.212,0.846 0.244,1.038 0.343,-0.021 0.57,-0.03 1.204,-0.029 0.634,0.002 0.892,0.012 1.248,0.036 z"
             style="fill:#ffffff;fill-opacity:1;fill-rule:nonzero;stroke:none"
             id="path94" /></g><g
           id="g96"
           transform="translate(165.6787,39.71)"><path
             d="m 0,0 c -0.557,0.437 -1.112,0.733 -1.837,1.054 l 0.633,0.802 C -0.509,1.569 0.044,1.295 0.69,0.922 Z m -2.056,-6.896 c -0.193,-0.737 -0.315,-0.855 -1.797,-1.148 0.041,0.363 0.031,0.674 -0.062,1.091 0.93,0.014 1.112,0.152 1.196,0.474 l 1.394,5.34 C -2.822,-1.143 -3.321,-1.153 -3.711,-1.24 l 0.252,0.964 c 0.466,-0.076 0.911,-0.094 1.566,-0.082 0.968,0.011 1.211,0.035 1.612,0.088 -0.095,-0.255 -0.156,-0.417 -0.39,-1.316 0.01,-0.6 0.072,-1.135 0.182,-1.594 0.849,0.622 1.612,1.364 2.181,1.995 0.183,-0.318 0.426,-0.62 0.58,-0.724 C 2.38,-1.995 2.366,-2.08 2.123,-2.104 1.964,-2.113 1.638,-2.308 -0.306,-3.811 0.106,-4.835 0.749,-5.54 1.702,-6.073 1.295,-6.437 1.075,-6.716 0.845,-7.145 -0.236,-6.186 -0.908,-5.17 -1.09,-3.191 Z m -3.878,-0.543 c -0.172,0.32 -0.313,0.491 -0.606,0.704 1.549,0.902 2.628,1.943 3.3,3.464 -1.341,-0.003 -1.829,-0.048 -2.269,-0.146 l 0.26,0.996 c 0.356,-0.042 0.764,-0.061 1.527,-0.059 0.772,10e-4 1.181,0.024 1.578,0.068 -0.789,-2.144 -1.652,-3.374 -3.79,-5.027"
             style="fill:#ffffff;fill-opacity:1;fill-rule:nonzero;stroke:none"
             id="path98" /></g><g
           id="g100"
           transform="translate(182.834,38.2139)"><path
             d="m 0,0 -0.846,-0.002 -0.195,-0.749 0.845,0.002 z m -1.406,-0.004 -0.854,-0.002 -0.196,-0.749 0.854,0.002 z M -1.48,-6.553 c -0.351,0.343 -1.047,0.737 -1.606,0.918 l 0.596,0.526 c 0.595,-0.214 1.276,-0.564 1.713,-0.864 z m 0.374,8.016 c 0.793,0.012 1.434,0.046 1.893,0.079 L 0.614,0.878 C 0.146,0.92 -0.594,0.929 -1.5,0.937 -2.691,0.943 -3.239,0.922 -3.722,0.866 l 0.173,0.663 c 0.403,-0.039 0.838,-0.06 1.8,-0.068 l 0.143,0.545 C -2.653,2.003 -3.171,1.991 -3.825,1.946 l 0.173,0.663 C -3.02,2.568 -2.41,2.55 -1.467,2.542 c 0.088,0.374 0.155,0.663 0.172,0.802 0.269,-0.065 0.57,-0.106 0.738,-0.095 0.168,0.013 0.153,-0.084 0.022,-0.16 C -0.664,3.014 -0.73,2.865 -0.824,2.544 0.343,2.547 0.844,2.567 1.511,2.624 L 1.338,1.961 c -0.642,0.04 -1.135,0.05 -2.302,0.047 z m -1.705,-1.471 -0.835,-0.002 -0.197,-0.749 0.836,0.002 z m 1.779,-2.188 -2.738,-0.008 -0.12,-0.46 2.738,0.008 z m -0.243,-0.931 -2.737,-0.008 -0.121,-0.461 2.738,0.009 z m -0.235,-0.899 -2.737,-0.008 -0.131,-0.503 2.737,0.008 z m -0.636,2.736 c -0.973,-0.003 -1.713,-0.024 -2.478,-0.07 0.103,0.321 0.208,0.653 0.291,0.973 0.095,0.365 0.175,0.706 0.218,0.975 C -3.429,0.547 -2.636,0.527 -1.671,0.529 -0.716,0.533 0.117,0.557 0.781,0.6 0.686,0.343 0.584,-0.012 0.489,-0.374 0.395,-0.738 0.312,-1.092 0.271,-1.35 c -0.705,0.043 -1.461,0.063 -2.417,0.06 m 1.717,-1.056 -0.536,-2.053 c -0.069,-0.268 -0.115,-0.483 -0.144,-0.699 -0.445,0.023 -0.754,0.032 -2.095,0.029 -1.341,-0.004 -1.525,-0.004 -1.993,-0.037 0.078,0.193 0.158,0.428 0.227,0.697 l 0.536,2.055 c 0.065,0.246 0.13,0.567 0.145,0.727 0.433,-0.063 0.633,-0.073 1.965,-0.069 1.349,0.003 1.701,0.012 2.131,0.079 -0.072,-0.171 -0.171,-0.483 -0.236,-0.729 m -5.83,-2.891 c 0.131,0.61 0.212,1.167 0.235,1.744 l 0.606,0.108 c 0.02,-0.524 -0.019,-1.091 -0.116,-1.678 z m 2.438,-0.507 c -0.171,-0.024 -0.278,-0.044 -0.45,-0.11 -0.513,-0.205 -1.266,-0.482 -1.717,-0.633 -0.059,0.234 -0.121,0.383 -0.286,0.629 0.804,0.163 1.539,0.411 2.167,0.745 0.18,-0.195 0.325,-0.341 0.437,-0.438 0.113,-0.096 0.086,-0.161 -0.151,-0.193 m -3.658,0.333 c 0.227,0.589 0.414,1.306 0.511,1.927 l 0.564,0.01 c -0.088,-0.65 -0.236,-1.389 -0.363,-1.915 z m 0.827,5.211 c -0.178,-0.011 -0.327,-0.023 -0.484,-0.055 0.028,0.277 0.032,0.546 0.001,0.738 0.16,0.055 0.348,0.171 0.728,0.645 0.342,0.429 0.829,1.211 1.367,2.218 C -4.827,3.175 -4.528,2.981 -4.389,2.918 -4.23,2.855 -4.234,2.771 -4.468,2.65 -4.52,2.63 -4.838,2.287 -4.982,2.083 -5.247,1.74 -5.975,0.817 -6.295,0.432 l 0.872,0.002 c 0.4,0.546 0.588,0.846 0.812,1.244 0.172,-0.151 0.44,-0.352 0.571,-0.416 0.145,-0.075 0.143,-0.117 -0.059,-0.257 -0.057,-0.043 -0.298,-0.3 -0.457,-0.484 -0.582,-0.685 -1.406,-1.628 -2.219,-2.529 l 1.162,0.056 c -0.008,0.321 -0.043,0.61 -0.098,0.824 l 0.702,0.226 c 0.066,-0.524 0.125,-1.421 0.12,-1.999 l -0.74,-0.239 c 0.011,0.183 0.018,0.387 0.016,0.59 l -1.434,-0.111 c -0.264,-0.024 -0.615,-0.11 -0.794,-0.194 0.035,0.278 0.028,0.492 -0.013,0.758 0.355,0.098 0.54,0.238 1.079,0.826 0.154,0.171 0.564,0.687 0.908,1.125 z m -1.491,-5.534 -0.715,0.105 c 0.379,0.578 0.838,1.703 0.959,2.27 l 0.612,-0.083 c -0.23,-0.74 -0.565,-1.671 -0.856,-2.292"
             style="fill:#ffffff;fill-opacity:1;fill-rule:nonzero;stroke:none"
             id="path102" /></g><g
           id="g104"
           transform="translate(73.915,196.5669)"><path
             d="m 0,0 c 0,0 41.878,25.64 72.144,-11.649 0,0 14.982,-17.894 7.504,-44.581 0,0 18.779,10.213 25.329,35.46 0,0 -14.181,37.616 -60.155,39.333 0,0 -23.855,1.322 -44.822,-18.563"
             style="fill:#8fc429;fill-opacity:1;fill-rule:nonzero;stroke:none"
             id="path106" /></g><g
           id="g108"
           transform="translate(181.8467,170.5908)"><path
             d="m 0,0 c 0,0 0.685,-49.099 -46.829,-56.103 0,0 -23.032,-3.755 -42.17,16.292 0,0 -0.798,-21.361 17.574,-39.877 0,0 39.587,-6.997 64.521,31.667 0,0 13.308,19.843 6.904,48.021"
             style="fill:#ad5ea1;fill-opacity:1;fill-rule:nonzero;stroke:none"
             id="path110" /></g><g
           id="g112"
           transform="translate(101.9961,88.9736)"><path
             d="m 0,0 c 0,0 -43.078,23.569 -25.792,68.376 0,0 8.067,21.899 34.937,28.692 0,0 -18.204,11.207 -43.363,4.326 0,0 -25.572,-31.018 -4.186,-71.75 0,0 10.723,-21.351 38.404,-29.644"
             style="fill:#e33b39;fill-opacity:1;fill-rule:nonzero;stroke:none"
             id="path114" /></g><g
           id="g116"
           transform="translate(135.3691,129.9756)"><path
             d="M 0,0 C -2.04,-0.083 -4.636,0.375 -6.98,1.804 -8.531,2.748 -8.623,6.487 -7.124,7.509 -6.321,8.057 -5.617,7.518 -4.9,7.115 -1.998,5.48 0.994,4.616 4.276,6.05 c 3.059,1.337 3.632,4.816 1.189,7.047 -1.792,1.636 -4.05,2.531 -5.956,4.009 -4.315,3.344 -3.827,9.728 -0.516,13.33 3.672,3.995 11.107,5.018 15.949,2.548 1.699,-0.866 1.974,-4.743 0.403,-5.81 -0.519,-0.353 -0.896,0.088 -1.348,0.265 -2.507,0.983 -4.916,2.31 -7.812,1.126 C 3.357,27.41 2.595,24.145 4.796,22.043 6.202,20.699 7.978,19.938 9.572,18.898 15.71,14.895 15.919,7.297 9.965,2.941 6.761,0.597 5.049,0.056 0,0"
             style="fill:#43479a;fill-opacity:1;fill-rule:nonzero;stroke:none"
             id="path118" /></g><g
           id="g120"
           transform="translate(123.0586,158.1602)"><path
             d="m 0,0 c -1.427,0 -2.855,-0.029 -4.281,0.009 -1.23,0.032 -1.786,-0.63 -1.993,-1.736 -0.353,-1.877 -0.627,-3.773 -1.09,-5.622 -0.321,-1.278 0.248,-1.554 1.295,-1.555 2.421,-10e-4 4.841,0.01 7.261,-10e-4 2.057,-0.008 2.346,-0.362 1.918,-2.278 -0.701,-3.134 -0.817,-3.217 -4.092,-3.206 -1.988,0.007 -3.975,-0.071 -5.96,-0.007 -1.265,0.041 -1.953,-0.394 -2.181,-1.683 -0.519,-2.922 -1.271,-5.811 -1.617,-8.75 -0.232,-1.964 -1.003,-2.873 -2.956,-3.053 -1.078,-0.1 -2.104,0.047 -3.144,0.155 -0.798,0.083 -1.222,0.597 -1.057,1.43 0.713,3.634 1.451,7.264 2.169,10.898 0.898,4.537 1.768,9.079 2.684,13.612 0.38,1.872 0.824,3.732 1.283,5.586 0.295,1.196 1.185,1.694 2.349,1.697 4.968,0.014 9.935,0.008 14.902,0.003 0.361,0 0.837,0.108 1.016,-0.278 C 7.138,3.848 6.38,2.554 6.129,1.253 5.964,0.399 5.218,-0.003 4.284,0.017 2.857,0.047 1.429,0.025 0,0.025 V 0"
             style="fill:#43479a;fill-opacity:1;fill-rule:nonzero;stroke:none"
             id="path122" /></g><g
           id="g124"
           transform="translate(94.9873,163.6636)"><path
             d="m 0,0 c 3.541,-0.003 7.083,-0.058 10.622,0.027 1.258,0.03 1.689,-0.369 1.487,-1.575 -0.07,-0.426 -0.011,-0.873 -0.072,-1.301 -0.308,-2.143 -1.01,-2.734 -3.161,-2.7 -1.614,0.026 -3.239,-0.059 -4.84,0.098 -1.683,0.164 -2.125,-0.792 -2.389,-2.13 -1.176,-6.001 -2.44,-11.986 -3.524,-18.004 -0.327,-1.82 -0.97,-3.577 -1.028,-5.458 -0.039,-1.24 -0.701,-2.01 -2.057,-2.224 -4.571,-0.722 -5.325,0.168 -4.374,4.663 1.52,7.182 2.82,14.411 4.285,21.605 0.27,1.328 -0.371,1.478 -1.358,1.528 -1.917,0.095 -3.823,-0.275 -5.753,-0.056 -1.062,0.121 -1.416,0.574 -1.318,1.55 0.062,0.617 0.079,1.242 0.19,1.851 0.248,1.363 0.882,2.191 2.48,2.154 C -7.207,-0.053 -3.604,0.003 0,0"
             style="fill:#43479a;fill-opacity:1;fill-rule:nonzero;stroke:none"
             id="path126" /></g></g></g></g></svg>
